<svg xmlns="http://www.w3.org/2000/svg" width="555" height="100"><defs><style>.wcd-builder-logo_builder,.wcd-builder-logo_c,.wcd-builder-logo_d,.wcd-builder-logo_line,.wcd-builder-logo_w{fill-rule:evenodd}.wcd-builder-logo_builder,.wcd-builder-logo_line,.wcd-builder-logo_w{fill:#f66}.wcd-builder-logo_c{fill:#099}.wcd-builder-logo_d{fill:#f63}</style></defs><path d="M24 0v59c0 15.96 9.31 14 25 14v24H22A22 22 0 0 1 0 75V0h24zm74 0v59c0 15.96-9.31 14-25 14v24h27a22 22 0 0 0 22-22V0H98z" class="wcd-builder-logo_w"/><path d="M149 0h73v97h-73a22 22 0 0 1-22-22V22a22 22 0 0 1 22-22zm13 24h60v49h-60a11 11 0 0 1-11-11V35a11 11 0 0 1 11-11z" class="wcd-builder-logo_c"/><path d="M300 0h-73v97h73a22 22 0 0 0 22-22V22a22 22 0 0 0-22-22zm-13 24h-60v49h60a11 11 0 0 0 11-11V35a11 11 0 0 0-11-11z" class="wcd-builder-logo_d"/><path d="M61 35a12 12 0 1 1-12 12 12 12 0 0 1 12-12zm0 6a6 6 0 1 1-6 6 6 6 0 0 1 6-6zm7 15l59 44-1-9-54-40zm58 35l53-47 4 6-56 50zm53-47h48v6h-44zm59-9a12 12 0 1 1-12 12 12 12 0 0 1 12-12zm0 6a6 6 0 1 1-6 6 6 6 0 0 1 6-6z" class="wcd-builder-logo_line"/><path d="M352.96 72.8q8.26 0 12.01-3.45t3.76-9.9V56.7a11.73 11.73 0 0 0-1.4-6.2 8.66 8.66 0 0 0-4.38-3.43 11.02 11.02 0 0 0 4.3-3.3 7.35 7.35 0 0 0 1.11-2.4 13.14 13.14 0 0 0 .37-3.38V36.2a13.95 13.95 0 0 0-.78-4.64 9.95 9.95 0 0 0-2.6-3.96 13.25 13.25 0 0 0-4.67-2.75 20.33 20.33 0 0 0-6.89-1.03h-12.3v48.97h11.48zm.66-22.7a12.6 12.6 0 0 1 3.72.44 4.77 4.77 0 0 1 2.23 1.41 5.3 5.3 0 0 1 .99 2.34 18.48 18.48 0 0 1 .25 3.23 30.82 30.82 0 0 1-.17 3.3 5.7 5.7 0 0 1-.9 2.62 4.87 4.87 0 0 1-2.2 1.72 10.43 10.43 0 0 1-4 .62h-3.63V50.09h3.71zm-.24-19.68q4.2 0 5.82 1.65a6.83 6.83 0 0 1 1.6 4.95 7.9 7.9 0 0 1-1.44 5.13q-1.44 1.75-5.65 1.75h-3.8V30.42h3.46zm42.1-6.6V61.1a4.73 4.73 0 0 1-1.49 3.85 6.2 6.2 0 0 1-7.43 0 4.73 4.73 0 0 1-1.48-3.85V23.82h-8.42v37.97a9.35 9.35 0 0 0 1.07 4.43 11.96 11.96 0 0 0 2.97 3.62 14.49 14.49 0 0 0 4.34 2.47 15.1 15.1 0 0 0 5.24.9 15.45 15.45 0 0 0 5.28-.9 14.39 14.39 0 0 0 4.37-2.47 11.45 11.45 0 0 0 2.94-3.62 9.65 9.65 0 0 0 1.03-4.43V23.82h-8.42zm25 48.98V23.82h-8.41v48.97h8.42zm33.27 0v-7.02h-16.67V23.82h-8.42v48.97h25.1zm17.17 0q7.51 0 11.52-3.27t4-10.14V36.47q0-6.05-3.76-9.35t-11.02-3.3H459.2v48.97h11.72zm.58-42.38q3.71 0 5.12 1.58a6.52 6.52 0 0 1 1.4 4.47v23.6a6.32 6.32 0 0 1-1.49 4.64q-1.48 1.48-5.03 1.48h-3.88V30.42h3.88zm47.96 42.37v-7.01h-16.68V51.4h14.53v-6.6h-14.53V30.42h16.68v-6.6h-25.1v48.97h25.1zm18.24-42.37q4.38 0 5.94 1.93a5.85 5.85 0 0 1 1 2.44 19.09 19.09 0 0 1 .24 3.27 19.08 19.08 0 0 1-.25 3.26 5.97 5.97 0 0 1-.9 2.38 4.68 4.68 0 0 1-2.07 1.48 9.99 9.99 0 0 1-3.55.51h-4.78V30.42h4.37zm-4.38 42.37V51.9h5.04l7.84 20.9h8.91l-9.08-22.35a11.52 11.52 0 0 0 5.66-4.89 15.5 15.5 0 0 0 1.6-7.36q0-14.37-14.85-14.37h-13.53v48.97h8.41z" class="wcd-builder-logo_builder"/></svg>
